<?xml version="1.0" encoding="utf-8"?>
<!-- Generator: Adobe Illustrator 26.4.1, SVG Export Plug-In . SVG Version: 6.00 Build 0)  -->
<svg version="1.1" id="Capa_1" xmlns="http://www.w3.org/2000/svg" xmlns:xlink="http://www.w3.org/1999/xlink" x="0px" y="0px"
	 viewBox="0 0 1920 514" style="enable-background:new 0 0 1920 514;" xml:space="preserve">
<style type="text/css">
	.st0{fill:#0000FF;}
	.st1{fill:#FFC000;}
	.st2{fill:#FBB03B;}
</style>
<g>
	<g>
		<path class="st0" d="M216.74,327.94c-7.83-3.21-14.09-7.96-18.78-14.25c-4.69-6.29-7.16-13.86-7.41-22.72h35.05
			c0.51,5.01,2.24,8.83,5.2,11.46c2.95,2.63,6.8,3.95,11.55,3.95c4.88,0,8.73-1.12,11.55-3.37c2.82-2.24,4.24-5.36,4.24-9.34
			c0-3.34-1.12-6.09-3.37-8.28c-2.25-2.18-5.01-3.98-8.28-5.39c-3.27-1.41-7.93-3.02-13.96-4.81c-8.73-2.7-15.86-5.39-21.38-8.09
			c-5.52-2.69-10.27-6.67-14.25-11.94c-3.98-5.26-5.97-12.13-5.97-20.61c0-12.58,4.56-22.43,13.67-29.56
			c9.11-7.13,20.99-10.69,35.63-10.69c14.89,0,26.89,3.56,36.01,10.69c9.11,7.13,13.99,17.04,14.64,29.75h-35.63
			c-0.26-4.36-1.86-7.8-4.81-10.3c-2.96-2.5-6.74-3.76-11.36-3.76c-3.98,0-7.19,1.06-9.63,3.18c-2.44,2.12-3.66,5.17-3.66,9.15
			c0,4.36,2.05,7.77,6.16,10.21c4.11,2.44,10.53,5.07,19.26,7.89c8.73,2.95,15.82,5.78,21.28,8.47c5.46,2.69,10.17,6.61,14.15,11.75
			c3.98,5.14,5.97,11.75,5.97,19.83c0,7.7-1.96,14.7-5.87,20.99c-3.92,6.29-9.6,11.3-17.04,15.02c-7.45,3.73-16.24,5.59-26.38,5.59
			C233.43,332.75,224.57,331.15,216.74,327.94z"/>
		<path class="st0" d="M396.98,307.52h-50.45l-8.09,23.88h-34.47l48.91-135.18h38.13l48.91,135.18h-34.86L396.98,307.52z
			 M388.51,282.1l-16.75-49.49l-16.56,49.49H388.51z"/>
		<path class="st0" d="M575.69,331.4h-32.93l-55.08-83.38v83.38h-32.93V196.22h32.93l55.08,83.77v-83.77h32.93V331.4z"/>
		<path class="st0" d="M602.65,227.89c5.78-10.46,13.83-18.61,24.17-24.46c10.33-5.84,22.05-8.76,35.14-8.76
			c16.05,0,29.78,4.24,41.21,12.71c11.42,8.47,19.06,20.03,22.92,34.66h-36.2c-2.7-5.65-6.52-9.95-11.46-12.9
			c-4.94-2.95-10.56-4.43-16.85-4.43c-10.14,0-18.36,3.53-24.65,10.59c-6.29,7.06-9.44,16.5-9.44,28.31
			c0,11.81,3.14,21.25,9.44,28.31c6.29,7.06,14.51,10.59,24.65,10.59c6.29,0,11.91-1.47,16.85-4.43c4.94-2.95,8.76-7.25,11.46-12.9
			h36.2c-3.85,14.64-11.49,26.16-22.92,34.57c-11.43,8.41-25.16,12.61-41.21,12.61c-13.09,0-24.81-2.92-35.14-8.76
			c-10.34-5.84-18.39-13.96-24.17-24.36c-5.78-10.4-8.67-22.27-8.67-35.63C593.98,250.27,596.87,238.36,602.65,227.89z"/>
		<path class="st0" d="M863.39,196.22V331.4h-32.93v-55.65h-51.22v55.65H746.3V196.22h32.93v52.96h51.22v-52.96H863.39z"/>
		<path class="st0" d="M920,222.6v27.35h44.1v25.42H920v29.66h49.88v26.38h-82.81V196.22h82.81v26.38H920z"/>
		<path class="st0" d="M1026.3,304.44h58.16v26.96h-95.52v-25.03l57.77-83.19h-57.77v-26.96h95.52v25.03L1026.3,304.44z"/>
		<path class="st1" d="M1127.78,194.68h85.69l-2.5,11.94h-72.41l-10.59,49.3h63.16l-2.31,11.36h-63.16l-11.17,52.19h74.14
			l-2.5,11.94h-87.43L1127.78,194.68z"/>
		<path class="st1" d="M1258.92,264l-35.05-69.32h15.21l29.46,59.7l54.69-59.7h14.83L1273.56,264l33.89,67.4h-14.83l-28.31-57.77
			l-52.76,57.77h-15.21L1258.92,264z"/>
		<path class="st1" d="M1356.17,194.68h53.53c6.42,0,11.97,1.7,16.66,5.1c4.68,3.4,8.21,7.8,10.59,13.19s3.56,11.11,3.56,17.14
			c0,6.16-1.25,12.26-3.75,18.29c-2.5,6.04-5.97,11.53-10.4,16.47c-4.43,4.94-9.53,8.86-15.31,11.75
			c-5.78,2.89-11.88,4.33-18.29,4.33h-41.59l-10.78,50.45h-13.29L1356.17,194.68z M1394.49,269.01c4.49,0,8.7-1.09,12.61-3.27
			c3.92-2.18,7.35-5.1,10.3-8.76c2.95-3.66,5.26-7.7,6.93-12.13c1.67-4.43,2.5-8.95,2.5-13.58c0-4.75-0.87-8.95-2.6-12.61
			c-1.73-3.66-4.11-6.58-7.12-8.76c-3.02-2.18-6.52-3.27-10.5-3.27h-39.67l-13.29,62.39H1394.49z"/>
		<path class="st1" d="M1442.44,331.4l29.08-136.72h54.88c6.42,0,11.91,1.7,16.47,5.1c4.56,3.4,8.06,7.83,10.5,13.29
			c2.44,5.46,3.66,11.2,3.66,17.23c0,5.52-0.99,10.91-2.98,16.18c-1.99,5.27-4.75,10.14-8.28,14.64
			c-3.53,4.49-7.61,8.28-12.23,11.36c-4.62,3.08-9.63,5.14-15.02,6.16l20.61,52.76h-15.21l-19.64-50.45h-37.74l-10.78,50.45H1442.44
			z M1511.19,269.01c4.36,0,8.47-1.09,12.32-3.27c3.85-2.18,7.25-5.07,10.21-8.66c2.95-3.59,5.26-7.57,6.93-11.94
			c1.67-4.36,2.5-8.79,2.5-13.29c0-4.62-0.84-8.83-2.5-12.61c-1.67-3.79-3.98-6.84-6.93-9.15c-2.96-2.31-6.48-3.47-10.59-3.47
			h-40.83l-13.29,62.39H1511.19z"/>
		<path class="st1" d="M1592.45,194.68h85.69l-2.5,11.94h-72.41l-10.59,49.3h63.16l-2.31,11.36h-63.16l-11.17,52.19h74.14
			l-2.5,11.94h-87.43L1592.45,194.68z"/>
		<path class="st1" d="M1716.85,332.37c-10.14,0-19.23-1.64-27.25-4.91c-8.02-3.28-15.12-8.25-21.28-14.92l9.05-10.98
			c1.8,2.44,4.04,4.78,6.74,7.03c2.7,2.25,5.84,4.27,9.44,6.07c3.59,1.8,7.54,3.21,11.84,4.24c4.3,1.03,9.02,1.54,14.15,1.54
			c7.7,0,14.38-1.09,20.03-3.27c5.65-2.18,10.01-5.35,13.1-9.51c3.08-4.16,4.62-9.13,4.62-14.89c0-4.87-1.29-8.72-3.85-11.54
			c-2.57-2.82-6.35-5.19-11.36-7.11c-5.01-1.93-11.11-3.78-18.29-5.58c-7.45-2.05-13.74-4.19-18.87-6.44
			c-5.14-2.24-9.05-5.13-11.75-8.65c-2.7-3.53-4.05-8.17-4.05-13.94c0-7.05,1.41-13.4,4.24-19.04c2.82-5.64,6.74-10.45,11.75-14.42
			c5.01-3.97,10.85-7.02,17.53-9.13c6.67-2.12,13.93-3.17,21.76-3.17c5.78,0,11.04,0.61,15.79,1.83c4.75,1.22,9.05,3.02,12.9,5.39
			c3.85,2.38,7.19,5.23,10.01,8.57l-8.67,10.78c-1.29-2.18-3.02-4.14-5.2-5.87c-2.18-1.73-4.66-3.24-7.41-4.53
			c-2.76-1.28-5.81-2.31-9.15-3.08c-3.34-0.77-6.93-1.16-10.78-1.16c-8.6,0-15.73,1.32-21.38,3.94c-5.65,2.63-9.85,6.19-12.61,10.67
			c-2.76,4.49-4.14,9.55-4.14,15.19c0,4.23,1.12,7.63,3.37,10.19c2.24,2.56,5.65,4.68,10.21,6.35c4.56,1.67,10.3,3.4,17.23,5.19
			c7.96,1.93,14.73,4.1,20.32,6.54c5.58,2.44,9.85,5.61,12.81,9.52c2.95,3.91,4.43,9.07,4.43,15.48c0,7.44-1.44,13.91-4.33,19.42
			c-2.89,5.51-6.84,10.07-11.84,13.65c-5.01,3.59-10.88,6.25-17.62,7.98C1731.58,331.5,1724.42,332.37,1716.85,332.37z"/>
		<path class="st1" d="M1829.5,332.37c-10.14,0-19.23-1.64-27.25-4.91c-8.02-3.28-15.12-8.25-21.28-14.92l9.05-10.98
			c1.8,2.44,4.04,4.78,6.74,7.03c2.7,2.25,5.84,4.27,9.44,6.07c3.59,1.8,7.54,3.21,11.84,4.24c4.3,1.03,9.02,1.54,14.15,1.54
			c7.7,0,14.38-1.09,20.03-3.27c5.65-2.18,10.01-5.35,13.1-9.51c3.08-4.16,4.62-9.13,4.62-14.89c0-4.87-1.29-8.72-3.85-11.54
			c-2.57-2.82-6.35-5.19-11.36-7.11c-5.01-1.93-11.11-3.78-18.29-5.58c-7.45-2.05-13.74-4.19-18.87-6.44
			c-5.14-2.24-9.05-5.13-11.75-8.65c-2.7-3.53-4.04-8.17-4.04-13.94c0-7.05,1.41-13.4,4.24-19.04c2.82-5.64,6.74-10.45,11.75-14.42
			c5.01-3.97,10.85-7.02,17.53-9.13c6.67-2.12,13.93-3.17,21.76-3.17c5.78,0,11.04,0.61,15.79,1.83c4.75,1.22,9.05,3.02,12.9,5.39
			c3.85,2.38,7.19,5.23,10.02,8.57l-8.67,10.78c-1.29-2.18-3.02-4.14-5.2-5.87c-2.18-1.73-4.66-3.24-7.41-4.53
			c-2.76-1.28-5.81-2.31-9.15-3.08c-3.34-0.77-6.93-1.16-10.78-1.16c-8.6,0-15.73,1.32-21.38,3.94c-5.65,2.63-9.85,6.19-12.61,10.67
			c-2.76,4.49-4.14,9.55-4.14,15.19c0,4.23,1.12,7.63,3.37,10.19c2.24,2.56,5.65,4.68,10.21,6.35c4.56,1.67,10.3,3.4,17.23,5.19
			c7.96,1.93,14.73,4.1,20.32,6.54c5.58,2.44,9.85,5.61,12.81,9.52c2.95,3.91,4.43,9.07,4.43,15.48c0,7.44-1.44,13.91-4.33,19.42
			c-2.89,5.51-6.84,10.07-11.84,13.65c-5.01,3.59-10.88,6.25-17.62,7.98C1844.23,331.5,1837.07,332.37,1829.5,332.37z"/>
	</g>
	<g>
		<g>
			<g>
				<path class="st1" d="M384.82,448.06c-7.64,0-15.2-3.44-20.19-9.98c-8.51-11.14-6.38-27.07,4.76-35.58l0.65-0.5
					c11.12-8.54,27.06-6.44,35.59,4.68c8.54,11.12,6.44,27.06-4.68,35.59l-0.74,0.57C395.61,446.36,390.19,448.06,384.82,448.06z"/>
			</g>
		</g>
		<g>
			<path class="st1" d="M270.9,490.59c-13.28,0-24.45-10.33-25.31-23.77c-0.89-13.99,9.73-26.06,23.72-26.95l1.51-0.1
				c14-1.03,26.14,9.5,27.15,23.48c1.01,13.98-9.5,26.14-23.48,27.15l-1.95,0.13C271.99,490.57,271.44,490.59,270.9,490.59z
				 M154.12,463.61c-4.24,0-8.54-1.07-12.5-3.31l-1.7-0.97c-12.13-7.02-16.28-22.55-9.26-34.68c7.02-12.13,22.55-16.28,34.68-9.26
				l1.32,0.75c12.2,6.92,16.48,22.41,9.56,34.6C171.56,458.98,162.97,463.61,154.12,463.61z M70.44,375.56
				c-9.31,0-18.27-5.14-22.72-14.02l-0.85-1.72c-6.19-12.58-1-27.79,11.58-33.98s27.79-1,33.98,11.58l0.69,1.39
				c6.28,12.53,1.21,27.79-11.33,34.06C78.14,374.69,74.26,375.56,70.44,375.56z M49.67,255.81c-1.04,0-2.08-0.06-3.13-0.19
				c-13.91-1.71-23.8-14.38-22.09-28.3c0.08-0.65,0.16-1.3,0.25-1.95c1.84-13.9,14.59-23.67,28.49-21.84
				c13.9,1.84,23.68,14.59,21.84,28.49l-0.19,1.5C73.25,246.38,62.31,255.81,49.67,255.81z M98.83,144.68
				c-5.85,0-11.73-2.01-16.51-6.12c-10.64-9.13-11.87-25.15-2.74-35.79c0.43-0.5,0.86-1,1.29-1.49c9.23-10.55,25.26-11.63,35.82-2.4
				c10.55,9.23,11.63,25.26,2.4,35.82l-0.98,1.13C113.09,141.68,105.98,144.68,98.83,144.68z M324.55,82.82
				c-2.7,0-5.44-0.43-8.14-1.35L315,81c-13.32-4.36-20.58-18.7-16.22-32.03c4.36-13.32,18.7-20.58,32.03-16.22
				c0.63,0.21,1.26,0.42,1.88,0.63c13.28,4.5,20.4,18.9,15.9,32.18C345.01,76.15,335.13,82.82,324.55,82.82z M201.4,79.57
				c-11.1,0-21.29-7.34-24.43-18.55c-3.78-13.5,4.1-27.51,17.61-31.29c0.64-0.18,1.27-0.35,1.91-0.52
				c13.54-3.64,27.47,4.37,31.12,17.9c3.65,13.54-4.37,27.47-17.9,31.12l-1.44,0.4C205.97,79.26,203.66,79.57,201.4,79.57z"/>
		</g>
		<g>
			<g>
				<path class="st1" d="M423.17,152.77c-7.57,0-15.05-3.37-20.06-9.8l-0.48-0.61c-8.65-11.03-6.72-26.99,4.31-35.64
					c11.03-8.65,26.99-6.72,35.64,4.31l0.6,0.77c8.61,11.07,6.61,27.02-4.45,35.62C434.1,151.03,428.62,152.77,423.17,152.77z"/>
			</g>
		</g>
	</g>
</g>
</svg>
